#!OML:ASF E:\Steps\Project 1\Capture day 1\Session 2\Subject.ASF
:FULLY-SPECIFIED
:DEGREES
260
root 10.5961 14.9652 14.8471 -163.455 0.174111 174.099
lowerback -15.4099 0.67752 2.96572
upperback 2.51189 0.332421 -0.135925
thorax 11.4737 0.356475 -1.74896
lowerneck -1.06595 4.92647 -0.0664859
upperneck 14.3779 6.09832 -0.824282
head 5.01423 2.67136 -0.010143
rclavicle -3.97569e-016 2.14687e-014
rhumerus -35.9702 -0.814646 -72.8735
rradius 63.01
rwrist -9.07026
rhand -3.558 -56.1306
rfingers 7.12502
rthumb 22.1783 -84.8784
lclavicle -3.97569e-016 2.14687e-014
lhumerus -39.0276 5.04858 62.2656
lradius 27.7864
lwrist 4.28116
lhand -19.4263 -13.5099
lfingers 7.12502
lthumb 6.89366 16.3578
rfemur 0.89067 8.68108 -4.76008
rtibia 38.4555
rfoot -41.3878 -7.43799
rtoes -53.6618
lfemur -52.9365 5.75582 6.19514
ltibia 33.0514
lfoot 3.32912 10.3787
ltoes -46.4389
261
root 10.4758 14.9269 14.787 -162.654 -0.0116674 173.828
lowerback -15.0591 0.381014 1.79448
upperback 2.55151 0.171255 -0.0956883
thorax 11.2939 0.200938 -1.08045
lowerneck -1.15434 4.73184 -0.288594
upperneck 13.9433 5.85649 -0.590105
head 4.84992 2.57576 0.0939726
rclavicle -4.37326e-015 -1.51076e-014
rhumerus -35.6522 -1.00471 -72.9743
rradius 63.3126
rwrist -9.1779
rhand -2.32539 -59.2926
rfingers 7.12502
rthumb 23.3613 -87.8949
lclavicle -4.37326e-015 -1.51076e-014
lhumerus -38.0676 4.85911 62.3193
lradius 27.7715
lwrist 4.2816
lhand -19.8211 -13.96
lfingers 7.12502
lthumb 6.51248 15.9198
rfemur 0.545443 8.35837 -5.65213
rtibia 38.2691
rfoot -40.7063 -7.34437
rtoes -53.5302
lfemur -55.1457 6.63591 4.87689
ltibia 35.3434
lfoot 3.04024 8.99601
ltoes -46.3165
262
root 10.3577 14.8979 14.7291 -161.965 -0.292315 173.485
lowerback -14.7654 0.0725127 0.58323
upperback 2.81615 -0.00789894 -0.0596687
thorax 11.41 0.037688 -0.397727
lowerneck -1.36506 4.59929 -0.581641
upperneck 13.2981 5.74028 -0.443491
head 4.63616 2.5464 0.187072
rclavicle -7.95139e-016 -1.59028e-014
rhumerus -34.8122 -1.72939 -73.0717
rradius 63.2456
rwrist -8.93783
rhand -0.208493 -64.2294
rfingers 7.12502
rthumb 25.3907 -267.441
lclavicle -7.95139e-016 -1.59028e-014
lhumerus -36.6836 4.75981 62.4941
lradius 27.75
lwrist 4.08681
lhand -20.3673 -13.2347
lfingers 7.12502
lthumb 5.98525 16.6608
rfemur 0.347079 8.05672 -6.49644
rtibia 38.1359
rfoot -39.9049 -7.6074
rtoes -53.9613
lfemur -57.4607 7.39443 3.35421
ltibia 37.8047
lfoot 3.02914 7.64309
ltoes -46.874
263
root 10.2397 14.876 14.67 -161.379 -0.690522 173.32
lowerback -14.2387 -0.214556 -0.373814
upperback 3.02011 -0.218542 0.00212245
thorax 11.3297 -0.128926 0.162101
lowerneck -1.54205 4.47657 -0.79744
upperneck 12.7167 5.6272 -0.327031
head 4.44615 2.51609 0.255975
rclavicle -7.55382e-015 -4.21423e-014
rhumerus -34.2131 -2.50462 -73.2372
rradius 63.2938
rwrist -8.63209
rhand -3.66374 -57.0801
rfingers 7.12502
rthumb 22.0768 -445.84
lclavicle -7.55382e-015 -4.21423e-014
lhumerus -35.4387 4.30812 62.6884
lradius 27.8884
lwrist 3.91832
lhand -20.5946 -12.4753
lfingers 7.12502
lthumb 5.76579 17.4263
rfemur 0.304922 7.78481 -7.01961
rtibia 38.0664
rfoot -39.2517 -7.94122
rtoes -54.4751
lfemur -59.8491 8.09323 1.90844
ltibia 40.3969
lfoot 3.16816 6.29549
ltoes -48.4598
264
root 10.1406 14.8629 14.5978 -160.834 -1.04984 173.386
lowerback -13.7329 -0.449564 -1.33304
upperback 3.15476 -0.38049 0.155439
thorax 11.1924 -0.277351 0.83551
lowerneck -1.49715 4.38296 -1.03948
upperneck 12.1266 5.52544 -0.0813305
head 4.20655 2.492 0.36574
rclavicle -2.38542e-015 2.22639e-014
rhumerus -34.2953 -2.84711 -73.4114
rradius 63.9092
rwrist -8.70582
rhand -4.50689 -53.4225
rfingers 7.12502
rthumb 21.2671 -442.276
lclavicle -2.38542e-015 2.22639e-014
lhumerus -34.375 3.52927 62.8282
lradius 28.0307
lwrist 3.80853
lhand -20.6636 -12.504
lfingers 7.12502
lthumb 5.69913 17.3994
rfemur 0.235805 7.84737 -7.14729
rtibia 37.8409
rfoot -38.3655 -8.62802
rtoes -54.9439
lfemur -62.0259 8.81128 0.836833
ltibia 42.7807
lfoot 3.21373 5.42453
ltoes -49.1665
265
root 10.0316 14.8521 14.5325 -160.038 -1.44487 173.662
lowerback -13.3613 -0.52297 -1.71881
upperback 3.19329 -0.421066 0.18969
thorax 11.0212 -0.323443 1.08297
lowerneck -1.64233 4.22155 -1.0883
upperneck 11.8988 5.30097 0.230233
head 4.14242 2.40551 0.469035
rclavicle -3.97569e-015 -4.77083e-015
rhumerus -34.5932 -3.39324 -73.7116
rradius 64.6145
rwrist -8.97951
rhand -5.02023 -53.7966
rfingers 7.12502
rthumb 20.774 -442.705
lclavicle -3.97569e-015 -4.77083e-015
lhumerus -33.1735 2.60314 62.7556
lradius 28.1261
lwrist 3.48488
lhand -20.9311 -13.1945
lfingers 7.12502
lthumb 5.44083 16.7157
rfemur -0.0600867 7.83316 -7.09414
rtibia 37.5326
rfoot -37.3223 -8.98073
rtoes -55.1786
lfemur -64.3125 9.51358 -0.0186321
ltibia 44.8595
lfoot 3.25977 5.01044
ltoes -47.5213
